# xmcd
#
# Track frame offsets:
#	150
#	19024
#	30514
#	49945
#	62215
#	75488
#	89096
#	100307
#	112494
#	130114
#	144892
#	158639
#	168987
#	179975
#	191019
#	205072
#	219181
#	229055
#	244418
#	255880
#	269404
#	282649
#
# Disc length: 3952 seconds
#
# Revision: 0
# Processed by: cddbd v1.5.2PL0 Copyright (c) Steve Scherf et al.
# Submitted via: dBpowerAMP V4.0
#
DISCID=430f6e16
DTITLE=TAMMY WYNETTE - TEARS OF FIRE
DYEAR=1900
DGENRE=Country
TTITLE0=THE DEEPENING SNOW
TTITLE1=GOOD LOVIN' ( MAKES IT RIGHT )
TTITLE2=BEDTIME STORY
TTITLE3=TILL I GET IT RIGHT
TTITLE4=MY MAN ( UNDERSTANDS )
TTITLE5=WE'RE GONNA HOLD ON ( GEORGE JONES )
TTITLE6=( WE'RE NOT ) THE JET SET ( GEORGE JONES )
TTITLE7=ANOTHER LONELY SONG ( GEORGE JONES )
TTITLE8=I DON'T THINK ABOUT HIM NO MORE ( GEORGE JONES )
TTITLE9=NO CHARGE ( WITH TINA )
TTITLE10=WOMAN TO WOMAN
TTITLE11=THIS TIME I ALMOST MADE IT
TTITLE12=NEAR YOU ( GEORGE JONES )
TTITLE13=I STILL BELIEVE IN FAIRY TALES
TTITLE14=TILL I CAN MAKE IT ON MY OWN
TTITLE15=GOLDEN RING ( GEORGE JONES )
TTITLE16=DID YOU EVER ( GEORGE JONES )
TTITLE17=YOU AND ME
TTITLE18=LET'S GET TOGETHER ( ONE LAST TIME )
TTITLE19=ONE OF A KIND
TTITLE20=SOUTHERN CALIFORNIA ( GEORGE JONES )
TTITLE21=DEAR DAUGHTERS
EXTD=
EXTT0=
EXTT1=
EXTT2=
EXTT3=
EXTT4=
EXTT5=
EXTT6=
EXTT7=
EXTT8=
EXTT9=
EXTT10=
EXTT11=
EXTT12=
EXTT13=
EXTT14=
EXTT15=
EXTT16=
EXTT17=
EXTT18=
EXTT19=
EXTT20=
EXTT21=
PLAYORDER=
